<svg width="191" height="65" viewBox="0 0 191 65" fill="none" xmlns="http://www.w3.org/2000/svg">
<g filter="url(#filter0_di_2_1793)">
<circle cx="160" cy="27.5" r="12" fill="url(#paint0_linear_2_1793)"/>
</g>
<rect x="157.391" y="20.7175" width="5.21739" height="13.5652" rx="0.782609" fill="white"/>
<rect x="166.783" y="24.8914" width="5.21739" height="13.5652" rx="0.782609" transform="rotate(90 166.783 24.8914)" fill="white"/>
<path d="M18.016 55.5L9.472 44.588H6.176L16.32 32.14H21.536L12.384 43.34L12.256 41.1L23.552 55.5H18.016ZM2.88 55.5V32.14H7.424V55.5H2.88ZM26.0333 55.5V32.14H30.4813V55.5H26.0333ZM23.8573 35.468V32.14H30.4813V35.468H23.8573ZM36.3913 55.5V38.124H40.8393V55.5H36.3913ZM33.9593 41.452V38.124H40.8393V41.452H33.9593ZM38.0233 36.044C37.1486 36.044 36.4979 35.82 36.0713 35.372C35.6659 34.9027 35.4633 34.3267 35.4633 33.644C35.4633 32.9187 35.6659 32.332 36.0713 31.884C36.4979 31.436 37.1486 31.212 38.0233 31.212C38.8979 31.212 39.5379 31.436 39.9433 31.884C40.3486 32.332 40.5513 32.9187 40.5513 33.644C40.5513 34.3267 40.3486 34.9027 39.9433 35.372C39.5379 35.82 38.8979 36.044 38.0233 36.044ZM45.9655 55.5V38.124H49.4855V45.58H49.1655C49.1655 43.8093 49.4002 42.3373 49.8695 41.164C50.3388 39.9693 51.0322 39.0733 51.9495 38.476C52.8882 37.8787 54.0508 37.58 55.4375 37.58H55.6295C57.6988 37.58 59.2668 38.252 60.3335 39.596C61.4002 40.9187 61.9335 42.9027 61.9335 45.548V55.5H57.4855V45.164C57.4855 44.0973 57.1762 43.2333 56.5575 42.572C55.9602 41.9107 55.1282 41.58 54.0615 41.58C52.9735 41.58 52.0882 41.9213 51.4055 42.604C50.7442 43.2653 50.4135 44.1613 50.4135 45.292V55.5H45.9655ZM67.5475 55.5V38.124H71.9955V55.5H67.5475ZM65.1155 41.452V38.124H71.9955V41.452H65.1155ZM69.1795 36.044C68.3048 36.044 67.6542 35.82 67.2275 35.372C66.8222 34.9027 66.6195 34.3267 66.6195 33.644C66.6195 32.9187 66.8222 32.332 67.2275 31.884C67.6542 31.436 68.3048 31.212 69.1795 31.212C70.0542 31.212 70.6942 31.436 71.0995 31.884C71.5048 32.332 71.7075 32.9187 71.7075 33.644C71.7075 34.3267 71.5048 34.9027 71.0995 35.372C70.6942 35.82 70.0542 36.044 69.1795 36.044ZM89.2818 55.5L83.4578 47.372H80.8658L88.2578 38.124H92.8978L86.0818 46.668L86.1778 44.428L94.3058 55.5H89.2818ZM77.1218 55.5V32.14H81.5698V55.5H77.1218ZM103.33 55.5V51.02C103.33 50.0387 103.479 49.1853 103.778 48.46C104.098 47.7347 104.61 47.0947 105.314 46.54C106.039 45.964 106.989 45.42 108.162 44.908L112.13 43.148C113.111 42.7 113.858 42.156 114.37 41.516C114.903 40.8547 115.17 40.012 115.17 38.988C115.17 37.8573 114.829 36.9613 114.146 36.3C113.485 35.6173 112.535 35.276 111.298 35.276C110.061 35.276 109.101 35.6173 108.418 36.3C107.757 36.9827 107.426 37.932 107.426 39.148H103.042C103.042 37.6973 103.351 36.396 103.97 35.244C104.589 34.0707 105.506 33.1533 106.722 32.492C107.938 31.8093 109.463 31.468 111.298 31.468C113.133 31.468 114.658 31.7987 115.874 32.46C117.09 33.1213 118.007 34.0067 118.626 35.116C119.245 36.204 119.554 37.42 119.554 38.764V39.18C119.554 40.9293 119.063 42.3907 118.082 43.564C117.101 44.716 115.661 45.7187 113.762 46.572L109.794 48.332C109.047 48.652 108.525 48.9933 108.226 49.356C107.927 49.6973 107.778 50.1667 107.778 50.764V52.812L106.69 51.628H119.65V55.5H103.33ZM122.529 50.668V45.74L131.681 31.5L135.105 33.836L127.041 46.444L127.425 47.084H141.761V50.668H122.529ZM134.753 55.5V38.764H138.944V55.5H134.753ZM144.324 55.5V50.38H149.316V55.5H144.324Z" fill="url(#paint1_linear_2_1793)"/>
<defs>
<filter id="filter0_di_2_1793" x="129" y="0.5" width="62" height="62" filterUnits="userSpaceOnUse" color-interpolation-filters="sRGB">
<feFlood flood-opacity="0" result="BackgroundImageFix"/>
<feColorMatrix in="SourceAlpha" type="matrix" values="0 0 0 0 0 0 0 0 0 0 0 0 0 0 0 0 0 0 127 0" result="hardAlpha"/>
<feOffset dy="4"/>
<feGaussianBlur stdDeviation="9.5"/>
<feComposite in2="hardAlpha" operator="out"/>
<feColorMatrix type="matrix" values="0 0 0 0 0.0862745 0 0 0 0 0.470588 0 0 0 0 0.94902 0 0 0 0.2 0"/>
<feBlend mode="normal" in2="BackgroundImageFix" result="effect1_dropShadow_2_1793"/>
<feBlend mode="normal" in="SourceGraphic" in2="effect1_dropShadow_2_1793" result="shape"/>
<feColorMatrix in="SourceAlpha" type="matrix" values="0 0 0 0 0 0 0 0 0 0 0 0 0 0 0 0 0 0 127 0" result="hardAlpha"/>
<feOffset dy="4"/>
<feGaussianBlur stdDeviation="2"/>
<feComposite in2="hardAlpha" operator="arithmetic" k2="-1" k3="1"/>
<feColorMatrix type="matrix" values="0 0 0 0 0 0 0 0 0 0 0 0 0 0 0 0 0 0 0.12 0"/>
<feBlend mode="normal" in2="shape" result="effect2_innerShadow_2_1793"/>
</filter>
<linearGradient id="paint0_linear_2_1793" x1="146.132" y1="6.08823" x2="200.678" y2="11.9568" gradientUnits="userSpaceOnUse">
<stop stop-color="#3A8EF6"/>
<stop offset="1" stop-color="#6F3AFA"/>
</linearGradient>
<linearGradient id="paint1_linear_2_1793" x1="-11.8323" y1="8.81372" x2="287.582" y2="131.225" gradientUnits="userSpaceOnUse">
<stop stop-color="#3A8EF6"/>
<stop offset="1" stop-color="#6F3AFA"/>
</linearGradient>
</defs>
</svg>
