<svg width="191" height="64" viewBox="0 0 191 64" fill="none" xmlns="http://www.w3.org/2000/svg">
<g filter="url(#filter0_di_2_2209)">
<circle cx="160" cy="27" r="12" fill="url(#paint0_linear_2_2209)"/>
</g>
<rect x="157.391" y="20.2174" width="5.21739" height="13.5652" rx="0.782609" fill="white"/>
<rect x="166.783" y="24.3912" width="5.21739" height="13.5652" rx="0.782609" transform="rotate(90 166.783 24.3912)" fill="white"/>
<path d="M18.016 55L9.472 44.088H6.176L16.32 31.64H21.536L12.384 42.84L12.256 40.6L23.552 55H18.016ZM2.88 55V31.64H7.424V55H2.88ZM26.0333 55V31.64H30.4813V55H26.0333ZM23.8573 34.968V31.64H30.4813V34.968H23.8573ZM36.3913 55V37.624H40.8393V55H36.3913ZM33.9593 40.952V37.624H40.8393V40.952H33.9593ZM38.0233 35.544C37.1486 35.544 36.4979 35.32 36.0713 34.872C35.6659 34.4027 35.4633 33.8267 35.4633 33.144C35.4633 32.4187 35.6659 31.832 36.0713 31.384C36.4979 30.936 37.1486 30.712 38.0233 30.712C38.8979 30.712 39.5379 30.936 39.9433 31.384C40.3486 31.832 40.5513 32.4187 40.5513 33.144C40.5513 33.8267 40.3486 34.4027 39.9433 34.872C39.5379 35.32 38.8979 35.544 38.0233 35.544ZM45.9655 55V37.624H49.4855V45.08H49.1655C49.1655 43.3093 49.4002 41.8373 49.8695 40.664C50.3388 39.4693 51.0322 38.5733 51.9495 37.976C52.8882 37.3787 54.0508 37.08 55.4375 37.08H55.6295C57.6988 37.08 59.2668 37.752 60.3335 39.096C61.4002 40.4187 61.9335 42.4027 61.9335 45.048V55H57.4855V44.664C57.4855 43.5973 57.1762 42.7333 56.5575 42.072C55.9602 41.4107 55.1282 41.08 54.0615 41.08C52.9735 41.08 52.0882 41.4213 51.4055 42.104C50.7442 42.7653 50.4135 43.6613 50.4135 44.792V55H45.9655ZM67.5475 55V37.624H71.9955V55H67.5475ZM65.1155 40.952V37.624H71.9955V40.952H65.1155ZM69.1795 35.544C68.3048 35.544 67.6542 35.32 67.2275 34.872C66.8222 34.4027 66.6195 33.8267 66.6195 33.144C66.6195 32.4187 66.8222 31.832 67.2275 31.384C67.6542 30.936 68.3048 30.712 69.1795 30.712C70.0542 30.712 70.6942 30.936 71.0995 31.384C71.5048 31.832 71.7075 32.4187 71.7075 33.144C71.7075 33.8267 71.5048 34.4027 71.0995 34.872C70.6942 35.32 70.0542 35.544 69.1795 35.544ZM89.2818 55L83.4578 46.872H80.8658L88.2578 37.624H92.8978L86.0818 46.168L86.1778 43.928L94.3058 55H89.2818ZM77.1218 55V31.64H81.5698V55H77.1218ZM103.33 55V50.52C103.33 49.5387 103.479 48.6853 103.778 47.96C104.098 47.2347 104.61 46.5947 105.314 46.04C106.039 45.464 106.989 44.92 108.162 44.408L112.13 42.648C113.111 42.2 113.858 41.656 114.37 41.016C114.903 40.3547 115.17 39.512 115.17 38.488C115.17 37.3573 114.829 36.4613 114.146 35.8C113.485 35.1173 112.535 34.776 111.298 34.776C110.061 34.776 109.101 35.1173 108.418 35.8C107.757 36.4827 107.426 37.432 107.426 38.648H103.042C103.042 37.1973 103.351 35.896 103.97 34.744C104.589 33.5707 105.506 32.6533 106.722 31.992C107.938 31.3093 109.463 30.968 111.298 30.968C113.133 30.968 114.658 31.2987 115.874 31.96C117.09 32.6213 118.007 33.5067 118.626 34.616C119.245 35.704 119.554 36.92 119.554 38.264V38.68C119.554 40.4293 119.063 41.8907 118.082 43.064C117.101 44.216 115.661 45.2187 113.762 46.072L109.794 47.832C109.047 48.152 108.525 48.4933 108.226 48.856C107.927 49.1973 107.778 49.6667 107.778 50.264V52.312L106.69 51.128H119.65V55H103.33ZM122.529 50.168V45.24L131.681 31L135.105 33.336L127.041 45.944L127.425 46.584H141.761V50.168H122.529ZM134.753 55V38.264H138.944V55H134.753ZM144.324 55V49.88H149.316V55H144.324Z" fill="white"/>
<defs>
<filter id="filter0_di_2_2209" x="129" y="0" width="62" height="62" filterUnits="userSpaceOnUse" color-interpolation-filters="sRGB">
<feFlood flood-opacity="0" result="BackgroundImageFix"/>
<feColorMatrix in="SourceAlpha" type="matrix" values="0 0 0 0 0 0 0 0 0 0 0 0 0 0 0 0 0 0 127 0" result="hardAlpha"/>
<feOffset dy="4"/>
<feGaussianBlur stdDeviation="9.5"/>
<feComposite in2="hardAlpha" operator="out"/>
<feColorMatrix type="matrix" values="0 0 0 0 0.0862745 0 0 0 0 0.470588 0 0 0 0 0.94902 0 0 0 0.2 0"/>
<feBlend mode="normal" in2="BackgroundImageFix" result="effect1_dropShadow_2_2209"/>
<feBlend mode="normal" in="SourceGraphic" in2="effect1_dropShadow_2_2209" result="shape"/>
<feColorMatrix in="SourceAlpha" type="matrix" values="0 0 0 0 0 0 0 0 0 0 0 0 0 0 0 0 0 0 127 0" result="hardAlpha"/>
<feOffset dy="4"/>
<feGaussianBlur stdDeviation="2"/>
<feComposite in2="hardAlpha" operator="arithmetic" k2="-1" k3="1"/>
<feColorMatrix type="matrix" values="0 0 0 0 0 0 0 0 0 0 0 0 0 0 0 0 0 0 0.12 0"/>
<feBlend mode="normal" in2="shape" result="effect2_innerShadow_2_2209"/>
</filter>
<linearGradient id="paint0_linear_2_2209" x1="146.132" y1="5.58823" x2="200.678" y2="11.4568" gradientUnits="userSpaceOnUse">
<stop stop-color="#3A8EF6"/>
<stop offset="1" stop-color="#6F3AFA"/>
</linearGradient>
</defs>
</svg>
